# xmcd
#
# Track frame offsets: 
#        150
#        674
#        19667
#        38073
#        55152
#        73580
#        90135
#        105479
#        119835
#        135170
#        152056
#        168854
#        190617
#        200358
#        210951
#        218694
#        239360
#        253682
#        266264
#        283267
#        297149
#        319687
#
# Disc length: 4426 seconds
#
# Revision: 0
# Processed by: cddbd v1.5.2PL0 Copyright (c) Steve Scherf et al.
# Submitted via: ExactAudioCopy v0.99pb4
#
DISCID=24114816
DTITLE=Various Artist - prevue promo 1082A-2
DYEAR=2002
DGENRE=pop
TTITLE0=blank - data
TTITLE1=Cherokee - I Swear
TTITLE2=Backstreet Boys - Drowning(Dezrock Remix)
TTITLE3=Leona Naess - Mayor Of Your Town
TTITLE4=Jaheim and Next - Anything
TTITLE5=Willa Ford - Did Ya' Understand That(Seismic Crew Radio Edit)
TTITLE6=Nelly Furtado - Turn Off The Light(Remix)
TTITLE7=Soluna - Bring It To Me(Almighty Remix)
TTITLE8=Pink - Get The Party Started(Lyric - Ernie's All Night Party A
TTITLE8=nthem Mix - Radio Version)
TTITLE9=Pink - Get The Party Started(Lyric - Pink Noise Disco Mix - Ra
TTITLE9=dio Version)
TTITLE10=Caribbean Funk - One More Try(Island Mix)
TTITLE11=Jimmie Vaughan - Deep End, The
TTITLE12=Eddie Vedder - You've Got To Hide Your Love Away("I Am Sam" M
TTITLE12=ovie)
TTITLE13=Sarah McLachlan - Blackbird("I Am Sam" Movie)
TTITLE14=Ben Folds - Golden Slumbers("I Am Sam" Movie)
TTITLE15=Bruce Cockburn - My Beat
TTITLE16=Saves The Day - At Your Funeral
TTITLE17=Green Day - Maria
TTITLE18=Gov't Mule - Life On The Outside
TTITLE19=Breaking Point - Brother
TTITLE20=Cypress Hill - Trouble(Lyrics!! "Clean Version" - Album Versi
TTITLE20=on)
TTITLE21=Foo Fighters - One, The(Lyrics!! "Clean Version" - "Orange Co
TTITLE21=unty" Movie)
EXTD=
EXTT0=
EXTT1=
EXTT2=
EXTT3=
EXTT4=
EXTT5=
EXTT6=
EXTT7=
EXTT8=
EXTT9=
EXTT10=
EXTT11=
EXTT12=
EXTT13=
EXTT14=
EXTT15=
EXTT16=
EXTT17=
EXTT18=
EXTT19=
EXTT20=
EXTT21=
PLAYORDER=
